<svg width="280" height="128" viewBox="0 0 280 128" fill="none" xmlns="http://www.w3.org/2000/svg">
<g clip-path="url(#clip0_3_9856)">
<path d="M131 47.0001C136 52.0001 144 52.0001 149 47.0001M151.604 54.5841C151.604 54.5841 151.758 54.4741 152.004 54.2861C155.69 51.4361 158 47.3061 158 42.7081C158 34.1361 149.94 27.1801 140.004 27.1801C130.064 27.1801 122 34.1361 122 42.7081C122 51.2841 130.06 58.0001 140 58.0001C140.848 58.0001 142.24 57.9441 144.176 57.8321C146.7 59.4721 150.384 60.8181 153.608 60.8181C154.606 60.8181 155.076 59.9981 154.436 59.1621C153.464 57.9701 152.124 56.0621 151.604 54.5841Z" stroke="#4B465C" stroke-width="3.5" stroke-linecap="round" stroke-linejoin="round"/>
<path d="M131 47.0001C136 52.0001 144 52.0001 149 47.0001M151.604 54.5841C151.604 54.5841 151.758 54.4741 152.004 54.2861C155.69 51.4361 158 47.3061 158 42.7081C158 34.1361 149.94 27.1801 140.004 27.1801C130.064 27.1801 122 34.1361 122 42.7081C122 51.2841 130.06 58.0001 140 58.0001C140.848 58.0001 142.24 57.9441 144.176 57.8321C146.7 59.4721 150.384 60.8181 153.608 60.8181C154.606 60.8181 155.076 59.9981 154.436 59.1621C153.464 57.9701 152.124 56.0621 151.604 54.5841Z" stroke="white" stroke-opacity="0.2" stroke-width="3.5" stroke-linecap="round" stroke-linejoin="round"/>
</g>
<path d="M119.138 100.128H125.294V105.402H119.138V104.268H124.034V101.262H119.138V100.128ZM118.544 100.128H119.804V106.482H118.544V100.128ZM115.286 94.764H120.29V95.772H115.286V94.764ZM123.584 94.764H128.678V95.772H123.584V94.764ZM128.084 92.154H129.434V106.14C129.434 107.04 129.218 107.472 128.642 107.706C128.03 107.922 126.986 107.94 125.402 107.94C125.348 107.562 125.114 106.932 124.916 106.554C126.104 106.608 127.292 106.59 127.634 106.572C127.976 106.572 128.084 106.464 128.084 106.122V92.154ZM115.394 92.154H121.154V98.508H115.394V97.41H119.876V93.252H115.394V92.154ZM128.786 92.154V93.234H124.07V97.428H128.786V98.508H122.774V92.154H128.786ZM114.638 92.154H115.97V107.958H114.638V92.154ZM135.464 97.266H144.554V98.472H135.464V97.266ZM135.14 106.014H144.788V107.22H135.14V106.014ZM134.528 100.74H145.544V107.958H144.176V101.964H135.842V107.958H134.528V100.74ZM139.946 92.766C138.47 94.962 135.518 97.518 132.44 99.192C132.26 98.886 131.9 98.4 131.594 98.112C134.762 96.51 137.768 93.756 139.19 91.434H140.558C142.502 94.116 145.652 96.618 148.532 97.896C148.19 98.22 147.866 98.688 147.632 99.084C144.806 97.608 141.638 95.07 139.946 92.766ZM162.302 92.622C162.266 92.928 162.23 93.54 162.23 93.936C162.212 95.052 162.212 96.312 162.176 97.23C162.14 98.616 162.086 100.56 161.906 101.496C161.744 102.306 161.33 102.54 160.52 102.54C159.854 102.54 158.612 102.378 158.144 102.288L158.162 101.028C158.792 101.172 159.548 101.262 159.962 101.262C160.412 101.262 160.592 101.19 160.664 100.776C160.772 100.092 160.844 98.526 160.862 97.248C160.88 96.24 160.88 94.98 160.88 93.99C160.88 93.576 160.826 92.946 160.772 92.622H162.302ZM155.192 93.198C155.138 93.612 155.12 94.098 155.12 94.656C155.102 96.6 155.048 101.55 155.084 102.792C155.156 104.736 155.174 105.42 158.288 105.42C160.25 105.42 162.482 105.222 163.652 105.006L163.598 106.518C162.392 106.644 160.196 106.824 158.36 106.824C154.202 106.824 153.806 105.852 153.734 102.99C153.698 101.478 153.716 95.538 153.716 94.71C153.716 94.17 153.698 93.738 153.608 93.198H155.192ZM149.81 97.5C150.368 97.5 151.034 97.464 151.682 97.392C153.626 97.23 160.484 96.51 164.174 96.312C164.642 96.294 165.164 96.258 165.578 96.222V97.644C165.308 97.626 164.624 97.644 164.174 97.644C161.294 97.698 154.058 98.454 151.772 98.724C151.232 98.796 150.458 98.904 149.954 98.976L149.81 97.5Z" fill="#A2A5B3"/>
<circle opacity="0.2" cx="127.5" cy="75.5" r="39.5" fill="#D4D5DC"/>
<defs>
<clipPath id="clip0_3_9856">
<rect width="48" height="48" fill="white" transform="translate(116 20)"/>
</clipPath>
</defs>
</svg>
