<svg width="504" height="128" viewBox="0 0 504 128" fill="none" xmlns="http://www.w3.org/2000/svg">
<g clip-path="url(#clip0_3_9729)">
<rect width="504" height="128" fill="#0A6D8E"/>
<g clip-path="url(#clip1_3_9729)">
<path d="M234 58V54C234 49.5817 237.582 46 242 46H250C254.418 46 258 49.5817 258 54V58M260 22.2598C263.54 23.1661 266.016 26.3557 266.016 30.0098C266.016 33.6638 263.54 36.8534 260 37.7598M270 57.9998V53.9998C269.979 50.3689 267.516 47.2075 264 46.2998M254 30C254 34.4183 250.418 38 246 38C241.582 38 238 34.4183 238 30C238 25.5817 241.582 22 246 22C250.418 22 254 25.5817 254 30Z" stroke="white" stroke-width="3.5" stroke-linecap="round" stroke-linejoin="round"/>
</g>
<path d="M226.746 101.478C229.878 101.406 234.9 101.226 239.58 101.01L239.526 102.252C234.99 102.486 230.112 102.702 226.926 102.81L226.746 101.478ZM226.584 95.916H241.506V97.194H226.584V95.916ZM229.662 92.478H238.266V93.738H229.662V92.478ZM231.516 96.726L233.028 97.158C232.2 98.886 231.156 100.992 230.274 102.342L229.068 101.946C229.914 100.542 230.976 98.31 231.516 96.726ZM235.8 98.634L236.952 98.022C238.608 99.444 240.372 101.388 241.218 102.756L239.994 103.494C239.184 102.144 237.402 100.074 235.8 98.634ZM233.928 88.212C232.452 90.408 229.5 92.874 226.44 94.404C226.278 94.08 225.936 93.594 225.648 93.306C228.744 91.83 231.75 89.22 233.154 86.916H234.54C236.448 89.58 239.598 91.938 242.46 93.108C242.136 93.432 241.812 93.918 241.578 94.314C238.77 92.964 235.602 90.552 233.928 88.212ZM247.752 88.68V90.534H256.302V88.68H247.752ZM246.402 87.582H257.724V91.65H246.402V87.582ZM246.978 95.916V97.194H257.058V95.916H246.978ZM246.978 98.148V99.444H257.058V98.148H246.978ZM246.978 93.702V94.962H257.058V93.702H246.978ZM245.628 92.694H258.444V100.434H245.628V92.694ZM249.066 100.416L250.326 101.244C248.886 102.126 246.546 102.99 244.692 103.458C244.458 103.17 244.008 102.738 243.684 102.468C245.574 102.018 247.932 101.154 249.066 100.416ZM253.458 101.352L254.628 100.47C256.5 101.028 258.912 101.91 260.316 102.504L259.146 103.476C257.814 102.846 255.366 101.91 253.458 101.352ZM261.702 96.492H270.54V97.626H261.702V96.492ZM261.81 90.21H270.486V91.308H261.81V90.21ZM265.05 94.944L266.31 95.214C265.5 96.978 264.366 99.174 263.538 100.596L262.35 100.182C263.16 98.814 264.294 96.6 265.05 94.944ZM267.75 97.158L269.01 97.32C268.398 100.83 266.508 102.558 262.35 103.44C262.26 103.08 261.99 102.594 261.738 102.324C265.5 101.694 267.192 100.218 267.75 97.158ZM268.884 87.24L270.036 87.744C269.514 88.572 268.92 89.472 268.416 90.084L267.516 89.634C267.966 88.986 268.56 87.942 268.884 87.24ZM265.536 86.88H266.778V95.16H265.536V86.88ZM262.476 87.744L263.502 87.312C264.006 88.032 264.492 88.986 264.672 89.634L263.61 90.12C263.448 89.472 262.98 88.482 262.476 87.744ZM265.554 90.696L266.472 91.236C265.59 92.748 263.898 94.35 262.35 95.196C262.188 94.89 261.864 94.44 261.612 94.17C263.106 93.522 264.762 92.082 265.554 90.696ZM266.634 91.326C267.282 91.668 269.478 93.054 270 93.432L269.262 94.422C268.614 93.81 266.742 92.406 265.986 91.902L266.634 91.326ZM271.854 90.21H278.262V91.47H271.854V90.21ZM272.304 86.88L273.672 87.078C273.078 90.606 272.016 93.828 270.432 95.934C270.216 95.682 269.658 95.232 269.334 95.016C270.864 93.108 271.8 90.066 272.304 86.88ZM275.85 90.93L277.218 91.074C276.354 97.284 274.446 101.154 269.91 103.494C269.766 103.17 269.37 102.576 269.1 102.288C273.384 100.272 275.112 96.636 275.85 90.93ZM272.574 91.326C273.366 96.276 275.094 100.524 278.442 102.288C278.118 102.558 277.686 103.08 277.488 103.44C273.96 101.37 272.25 96.978 271.35 91.524L272.574 91.326ZM263.43 99.93L264.15 99.012C266.31 99.84 268.542 101.028 269.838 102.018L268.902 102.99C267.66 101.982 265.518 100.776 263.43 99.93Z" fill="white"/>
<g opacity="0.2">
<circle cx="29.5557" cy="26.556" r="55.5" transform="rotate(-47.4518 29.5557 26.556)" stroke="white" stroke-width="12" stroke-linecap="round" stroke-linejoin="round"/>
<path d="M6.83984 5.70618L29.555 26.556L55.694 25.4368" stroke="white" stroke-width="12" stroke-linecap="round" stroke-linejoin="round"/>
</g>
<g opacity="0.2">
<path d="M346.5 145.875L395 73.125L443.5 97.375L492 36.75L540.5 85.25" stroke="white" stroke-width="12" stroke-linecap="round" stroke-linejoin="round"/>
</g>
</g>
<defs>
<clipPath id="clip0_3_9729">
<rect width="504" height="128" fill="white"/>
</clipPath>
<clipPath id="clip1_3_9729">
<rect width="48" height="48" fill="white" transform="translate(228 16)"/>
</clipPath>
</defs>
</svg>
